<?xml version="1.0" standalone="no"?>
<!DOCTYPE svg PUBLIC "-//W3C//DTD SVG 20010904//EN"
 "http://www.w3.org/TR/2001/REC-SVG-20010904/DTD/svg10.dtd">
<svg version="1.0" xmlns="http://www.w3.org/2000/svg"
 width="512.000000pt" height="512.000000pt" viewBox="0 0 512.000000 512.000000"
 preserveAspectRatio="xMidYMid meet">
<metadata>
Created by potrace 1.14, written by Peter Selinger 2001-2017
</metadata>
<g transform="translate(0.000000,512.000000) scale(0.100000,-0.100000)"
fill="#000000" stroke="none">
<path d="M0 2560 l0 -2560 2560 0 2560 0 0 2560 0 2560 -2560 0 -2560 0 0
-2560z m1586 1784 c51 -38 69 -71 69 -129 0 -60 -20 -95 -75 -132 -31 -22 -42
-23 -229 -23 -219 0 -240 -5 -282 -72 -39 -64 -37 -69 326 -698 185 -322 347
-600 359 -617 11 -18 35 -40 52 -49 42 -23 117 -14 149 16 14 13 183 297 376
633 318 550 352 614 352 654 0 52 -24 90 -74 115 -29 15 -63 18 -223 18 -173
0 -191 2 -226 21 -75 42 -102 143 -57 209 49 73 56 75 280 78 275 5 356 -15
467 -117 136 -125 182 -317 116 -482 -37 -92 -724 -1275 -771 -1327 -23 -26
-73 -65 -110 -87 l-67 -39 5 -276 c4 -239 7 -285 26 -354 45 -170 150 -335
280 -443 77 -64 237 -144 334 -168 382 -92 778 96 948 450 78 161 82 192 86
620 l4 380 -73 35 c-130 62 -236 189 -273 331 -20 72 -19 202 1 270 53 181
198 322 375 364 259 61 512 -76 609 -330 33 -86 34 -243 2 -335 -44 -127 -141
-239 -259 -297 l-73 -36 0 -341 c0 -188 -5 -379 -10 -426 -68 -597 -597 -1049
-1190 -1017 -510 27 -925 363 -1059 857 -31 113 -41 232 -41 490 l0 235 -53
28 c-108 56 -130 89 -508 742 -194 336 -363 636 -377 669 -68 166 -22 360 117
488 113 103 170 118 453 115 201 -2 219 -3 244 -23z"/>
<path d="M3761 3204 c-67 -34 -103 -86 -109 -158 -11 -129 75 -225 201 -226
84 0 151 44 188 125 47 102 -5 224 -113 269 -54 23 -107 20 -167 -10z"/>
</g>
</svg>
